<?xml version="1.0" encoding="UTF-8" standalone="no"?><!DOCTYPE svg PUBLIC "-//W3C//DTD SVG 1.1//EN" "http://www.w3.org/Graphics/SVG/1.1/DTD/svg11.dtd"><svg width="100%" height="100%" viewBox="0 0 64 64" version="1.1" xmlns="http://www.w3.org/2000/svg" xmlns:xlink="http://www.w3.org/1999/xlink" xml:space="preserve" xmlns:serif="http://www.serif.com/" style="fill-rule:evenodd;clip-rule:evenodd;stroke-linejoin:round;stroke-miterlimit:2;"><rect id="ArtBoard1" x="0" y="0" width="64" height="64" style="fill:none;"/><clipPath id="_clip1"><rect id="ArtBoard11" serif:id="ArtBoard1" x="0" y="0" width="64" height="64"/></clipPath><g clip-path="url(#_clip1)"><path d="M32,0c17.661,0 32,14.339 32,32c0,17.661 -14.339,32 -32,32c-17.661,0 -32,-14.339 -32,-32c0,-17.661 14.339,-32 32,-32Zm0,0.64c17.308,-0 31.36,14.052 31.36,31.36c0,17.308 -14.052,31.36 -31.36,31.36c-17.308,0 -31.36,-14.052 -31.36,-31.36c-0,-17.308 14.052,-31.36 31.36,-31.36Z" style="fill:#fb7f7f;"/></g></svg>